<svg width="24" height="24" viewBox="0 0 24 24" fill="none" xmlns="http://www.w3.org/2000/svg">
    <path
        d="M19.46 11L15.55 7.09C14.7815 6.32037 14.2028 5.38223 13.86 4.35L13.37 2.88C13.1861 2.33315 12.8353 1.8577 12.3672 1.52049C11.899 1.18327 11.337 1.00125 10.76 1C10.3989 0.998687 10.041 1.06852 9.70687 1.2055C9.37272 1.34249 9.06882 1.54395 8.81253 1.79838C8.55624 2.05282 8.35258 2.35524 8.21317 2.68838C8.07375 3.02153 8.00132 3.37887 8.00001 3.74V4.86C8.00224 5.8283 8.15749 6.79017 8.46001 7.71L8.89001 9H4.12001C3.55775 9 3.01852 9.22336 2.62095 9.62094C2.22337 10.0185 2.00001 10.5577 2.00001 11.12C2.00139 11.4656 2.08566 11.8058 2.24575 12.112C2.40583 12.4183 2.63706 12.6816 2.92001 12.88C2.6368 13.0734 2.405 13.333 2.2447 13.6362C2.08439 13.9393 2.0004 14.277 2.00001 14.62C1.99207 15.0425 2.10938 15.4579 2.33717 15.8138C2.56496 16.1697 2.89303 16.4503 3.28001 16.62C3.10026 16.9229 3.00367 17.2678 3.00001 17.62C2.99914 18.1621 3.20595 18.6839 3.57794 19.0782C3.94992 19.4725 4.45881 19.7093 5.00001 19.74V19.88C5.00001 20.4423 5.22337 20.9815 5.62095 21.3791C6.01852 21.7766 6.55775 22 7.12001 22H14.61C15.852 21.9989 17.0771 21.7114 18.19 21.16L18.5 21H21V11H19.46ZM19 19H18L17.27 19.37C16.4328 19.7816 15.5129 19.9971 14.58 20H7.72001C7.49687 20.0089 7.27717 19.9428 7.09594 19.8123C6.91471 19.6818 6.78237 19.4944 6.72001 19.28L6.47001 18.41L5.62001 18C5.42424 17.9202 5.25877 17.7805 5.14738 17.6008C5.03598 17.4212 4.98439 17.2108 5.00001 17L5.17001 16L4.41001 15.26C4.24466 15.0985 4.14036 14.8847 4.11483 14.655C4.08931 14.4253 4.14414 14.1938 4.27001 14L4.93001 12.91L4.20001 11.81C4.15824 11.7592 4.12712 11.7006 4.10849 11.6375C4.08986 11.5745 4.0841 11.5084 4.09157 11.443C4.09903 11.3777 4.11956 11.3146 4.15194 11.2574C4.18431 11.2001 4.22787 11.15 4.28001 11.11C4.37496 11.0309 4.49675 10.9915 4.62001 11H11.67L10.36 7.08C10.1211 6.36424 9.99958 5.61457 10 4.86V3.75C10.0051 3.55269 10.0857 3.36485 10.2253 3.22528C10.3649 3.08571 10.5527 3.00506 10.75 3C10.9068 3.00012 11.0596 3.04938 11.187 3.14086C11.3144 3.23235 11.4098 3.36144 11.46 3.51L12 5C12.4315 6.31491 13.1604 7.51261 14.13 8.5L18.63 13H19V19Z"
        fill="#666666" fill-opacity="0.6" />
</svg>
    